<!DOCTYPE svg PUBLIC "-//W3C//DTD SVG 1.1//EN" "http://www.w3.org/Graphics/SVG/1.1/DTD/svg11.dtd">
<!-- Uploaded to: SVG Repo, www.svgrepo.com, Transformed by: SVG Repo Mixer Tools -->
<svg fill="#008080" height="800px" width="800px" version="1.1" id="Layer_1" xmlns="http://www.w3.org/2000/svg" xmlns:xlink="http://www.w3.org/1999/xlink" viewBox="0 0 512.461 512.461" xml:space="preserve">
<g id="SVGRepo_bgCarrier" stroke-width="0"/>
<g id="SVGRepo_tracerCarrier" stroke-linecap="round" stroke-linejoin="round"/>
<g id="SVGRepo_iconCarrier"> <g transform="translate(1 1)"> <g> <g> <path d="M93.328,378.964c9.387,0,17.067-7.68,17.067-17.067s-7.68-17.067-17.067-17.067c-9.387,0-17.067,7.68-17.067,17.067 S83.941,378.964,93.328,378.964z"/> <path d="M127.461,293.631c9.387,0,17.067-6.827,17.067-17.067c0-9.387-7.68-17.067-17.067-17.067s-17.067,7.68-17.067,17.067 S118.075,293.631,127.461,293.631z"/> <path d="M161.595,165.631h-102.4c-5.12,0-8.533,3.413-8.533,8.533c0,5.12,3.413,8.533,8.533,8.533h102.4 c5.12,0,8.533-3.413,8.533-8.533C170.128,169.044,166.715,165.631,161.595,165.631z"/> <path d="M161.595,131.497h-102.4c-5.12,0-8.533,3.413-8.533,8.533s3.413,8.533,8.533,8.533h102.4c5.12,0,8.533-3.413,8.533-8.533 S166.715,131.497,161.595,131.497z"/> <path d="M502.928,80.297h-17.067V63.231c0-5.12-3.413-8.533-8.533-8.533h-51.2c-5.12,0-8.533,3.413-8.533,8.533v17.067h-93.867 H204.261h-85.333V63.231c0-5.12-3.413-8.533-8.533-8.533h-51.2c-5.12,0-8.533,3.413-8.533,8.533v17.067H7.995 c-5.12,0-8.533,3.413-8.533,8.533v25.6c0,2.56,0.853,4.267,1.707,5.12l9.387,12.8c6.827,9.387,6.827,23.04,0,32.427l-9.387,12.8 c-0.853,1.707-1.707,3.413-1.707,5.12v25.6c0,5.12,3.413,8.533,8.533,8.533h32.427c8.533,0,16.213,4.267,20.48,11.093 c4.267,6.827,4.267,15.36,0.853,23.04L4.581,365.311c-10.24,22.187-5.973,48.64,9.387,67.413 c11.947,14.507,30.72,23.04,51.2,23.04h96.427c15.36,0,29.013-9.387,35.84-23.04c6.827-13.653,4.267-29.867-5.973-41.813 l-11.093-12.8c-0.853-1.707-1.707-4.267-1.707-5.973l22.214-69.973h45.2c38.4,0,69.12-30.72,69.973-69.12v-16.213h50.347 c5.12,0,8.533-3.413,8.533-8.533h102.4c5.12,0,8.533-3.413,8.533-8.533v-25.6h17.067c5.12,0,8.533-3.413,8.533-8.533v-76.8 C511.461,83.711,508.048,80.297,502.928,80.297z M434.661,71.764h34.133v8.533h-34.133V71.764z M315.195,97.364v34.133h-102.4 V97.364H315.195z M67.728,71.764h34.133v8.533H67.728V71.764z M166.715,389.204c0.853,0.853,11.947,13.653,11.947,13.653 c5.973,6.827,6.827,15.36,3.413,23.893c-4.267,7.68-11.093,12.8-20.48,12.8H65.168c-15.36,0-29.013-6.827-37.547-17.067 c-11.093-14.507-13.653-33.28-6.827-49.493l56.32-113.493c6.827-12.8,5.973-28.16-1.707-40.107 c-0.853-0.853-0.853-1.707-1.707-2.56h31.931l-70.331,163.84c-4.267,10.24-1.707,22.187,5.12,30.72 c5.973,5.973,14.507,10.24,24.747,10.24h40.96c11.093,0,21.333-6.827,23.893-17.067l62.301-187.733h17.059 c0,0-47.787,152.747-47.787,153.6C160.741,377.257,162.448,384.084,166.715,389.204z M175.248,216.831l-59.733,181.76 c-1.707,3.413-5.12,5.973-9.387,5.973h-40.96c-5.12,0-9.387-1.707-11.093-3.413c-3.413-4.267-4.267-9.387-2.56-13.653 l73.387-170.667H175.248z M298.128,233.044c0,29.013-23.04,52.053-52.053,52.053h-39.782l15.442-48.643 c7.418,13.474,18.335,20.819,39.699,28.163c0.853,0.853,1.707,0.853,2.56,0.853c3.413,0,6.827-2.56,7.68-6.827 c1.707-5.12-0.853-9.387-5.12-11.093c-24.747-8.533-29.867-15.36-34.133-29.867c-0.117-0.293-0.254-0.577-0.402-0.853h66.109 V233.044z M468.795,191.231h-93.867c0-9.387,7.68-17.067,17.067-17.067h76.8V191.231z M494.395,157.097h-17.067h-85.333 c-18.773,0-34.133,15.36-34.133,34.133v8.533h-50.347h-85.333h-0.853H40.421H16.528v-13.653l7.68-11.093 c11.947-15.36,11.947-37.547,0-52.907l-7.68-10.24V97.364h42.667h51.2h85.333v42.667c0,5.12,3.413,8.533,8.533,8.533h119.467 c5.12,0,8.533-3.413,8.533-8.533V97.364h93.867h51.2h17.067V157.097z"/> </g> </g> </g> </g>
</svg>