<!DOCTYPE svg PUBLIC "-//W3C//DTD SVG 1.1//EN" "http://www.w3.org/Graphics/SVG/1.1/DTD/svg11.dtd">
<!-- Uploaded to: SVG Repo, www.svgrepo.com, Transformed by: SVG Repo Mixer Tools -->
<svg height="800px" width="800px" version="1.1" id="Layer_1" xmlns="http://www.w3.org/2000/svg" xmlns:xlink="http://www.w3.org/1999/xlink" viewBox="0 0 512.001 512.001" xml:space="preserve" fill="#000000">
<g id="SVGRepo_bgCarrier" stroke-width="0"/>
<g id="SVGRepo_tracerCarrier" stroke-linecap="round" stroke-linejoin="round"/>
<g id="SVGRepo_iconCarrier"> <g> <path style="fill:#008080;" d="M489.366,512.001h-54.742c-7.814,0-14.15-6.335-14.15-14.15V389.219 c0-7.815,6.337-14.15,14.15-14.15s14.15,6.335,14.15,14.15v94.482h26.441V194.106c0-7.815,6.337-14.15,14.15-14.15 s14.15,6.335,14.15,14.15v303.745C503.516,505.666,497.181,512.001,489.366,512.001z"/> <path style="fill:#008080;" d="M255.856,190.06c-0.017,0-0.167,0-0.184,0c-16.76-0.058-31.537-8.018-41.609-22.414 c-9.935-14.198-14.929-33.705-14.845-57.978c0.17-49.229,44.347-102.38,46.228-104.619C248.134,1.848,252.1,0,256.28,0 c0.014,0,0.027,0,0.041,0c4.194,0.011,8.166,1.885,10.846,5.111c1.869,2.251,45.785,55.711,45.615,104.95 C312.579,169.109,281.988,190.06,255.856,190.06z M256.211,37.958c-11.691,17.091-28.605,46.219-28.693,71.809 c-0.079,22.817,5.248,35.247,9.733,41.656c4.781,6.833,11.012,10.311,18.519,10.337l0.086,14.15v-14.15 c17.548,0,28.517-19.846,28.626-51.796C284.569,84.378,267.813,55.13,256.211,37.958z"/> <path style="fill:#008080;" d="M213.287,176.712c-15.38,0-36.502-6.433-61.175-30.937 c-34.939-34.698-41.685-103.554-41.956-106.467c-0.386-4.176,1.098-8.309,4.057-11.283c2.956-2.976,7.07-4.491,11.261-4.121 c1.027,0.089,25.479,2.29,52.445,11.022c7.435,2.407,11.51,10.386,9.103,17.821c-2.407,7.433-10.382,11.511-17.821,9.103 c-10.183-3.297-20.072-5.554-28.07-7.061c3.937,20.341,12.768,52.873,30.926,70.904c18.472,18.344,36.417,26.131,49.237,21.354 c7.327-2.727,15.472,1,18.199,8.323c2.727,7.323-1,15.472-8.323,18.199C226.681,175.241,220.64,176.712,213.287,176.712z"/> <path style="fill:#008080;" d="M298.724,176.722c-7.484,0-13.623-1.525-18.169-3.249c-7.307-2.771-10.985-10.941-8.214-18.248 c2.771-7.307,10.944-10.983,18.248-8.213c12.829,4.862,30.817-2.906,49.353-21.316c18.155-18.03,26.988-50.559,30.926-70.904 c-7.998,1.506-17.889,3.763-28.07,7.06c-7.436,2.41-15.414-1.668-17.821-9.103c-2.407-7.435,1.668-15.414,9.104-17.821 c26.965-8.731,51.415-10.931,52.444-11.02c4.169-0.364,8.302,1.146,11.259,4.121c2.957,2.974,4.443,7.106,4.055,11.283 c-0.269,2.915-7.019,71.77-41.954,106.467C335.233,170.26,314.128,176.722,298.724,176.722z"/> </g> <path style="fill:#000000;" d="M376.319,114.986c-36.314,0-70.662,17.634-91.875,47.18c-6.659,9.267-17.024,14.583-28.442,14.583 c-11.415,0-21.784-5.315-28.439-14.583c-21.218-29.542-55.567-47.18-91.88-47.18H22.633v111.652 c0,62.328,50.064,113.663,111.594,114.437c0.474,0.006,0.948,0.01,1.418,0.01c36.376,0,70.657-17.57,91.923-47.19 c6.651-9.267,17.014-14.582,28.434-14.582c11.414,0,21.779,5.311,28.434,14.576c21.541,30.006,56.423,47.646,93.334,47.184 c61.536-0.774,111.598-52.107,111.598-114.437v-111.65H376.319z M137.529,259.435c-33.509-5.104-54.984-46.597-54.984-46.597 s32.856-33.216,66.364-28.112c33.509,5.104,54.984,46.597,54.984,46.597S171.039,264.54,137.529,259.435z M374.469,259.435 c-33.509,5.104-66.364-28.112-66.364-28.112s21.475-41.493,54.984-46.597c33.509-5.104,66.364,28.112,66.364,28.112 S407.979,254.331,374.469,259.435z"/> <path style="fill:#008080;" d="M135.643,355.234c-0.516,0-1.039-0.004-1.561-0.01c-69.272-0.872-125.6-58.555-125.6-128.585V114.986 c0-7.815,6.335-14.15,14.15-14.15h113.05c40.858,0,79.502,19.842,103.372,53.076c4.023,5.602,10.042,8.687,16.946,8.687 c6.905,0,12.925-3.086,16.951-8.688c23.859-33.232,62.502-53.075,103.368-53.075h113.048c7.814,0,14.15,6.335,14.15,14.15v111.652 c0,70.03-56.331,127.714-125.57,128.585c-0.532,0.007-1.058,0.01-1.588,0.01c-40.892,0-79.553-19.849-103.419-53.092 c-4.02-5.596-10.035-8.678-16.939-8.678c-6.904,0-12.919,3.083-16.938,8.683C215.193,335.388,176.532,355.234,135.643,355.234z M36.783,129.136v97.501c0,54.62,43.792,99.61,97.622,100.288l1.238,0.008c31.797,0,61.864-15.437,80.429-41.292 c9.339-13.014,23.893-20.48,39.928-20.48c16.031,0,30.583,7.461,39.927,20.473c18.806,26.195,49.464,41.677,81.664,41.291 c53.829-0.678,97.625-45.666,97.625-100.288v-97.501h-98.898c-31.773,0-61.821,15.432-80.382,41.282 c-9.351,13.017-23.907,20.481-39.936,20.481c-16.031,0-30.586-7.464-39.934-20.478c-18.567-25.851-48.618-41.285-80.385-41.285 L36.783,129.136L36.783,129.136z M367.318,274.119c-36.369,0-67.948-31.504-69.273-32.846c-4.314-4.363-5.328-11.006-2.506-16.454 c1.012-1.956,25.248-47.964,65.418-54.083c3.027-0.461,6.15-0.695,9.283-0.695c36.369,0,67.948,31.504,69.274,32.846 c4.313,4.363,5.326,11.006,2.506,16.454c-1.012,1.956-25.248,47.964-65.418,54.083C373.574,273.885,370.451,274.119,367.318,274.119 z M326.491,228.553c10.058,7.746,25.919,17.265,40.828,17.265c1.711,0,3.399-0.125,5.021-0.372 c16.304-2.483,30.599-18.138,38.772-29.806c-10.057-7.752-25.943-17.299-40.872-17.299c-1.711,0-3.4,0.125-5.021,0.372 C348.027,201.332,333.96,217.836,326.491,228.553z M144.681,274.119c-3.133,0-6.256-0.233-9.283-0.695 c-40.171-6.119-64.408-52.127-65.42-54.083c-2.82-5.449-1.807-12.093,2.506-16.454c1.327-1.341,32.907-32.846,69.274-32.846 c3.133,0,6.254,0.235,9.281,0.695c40.171,6.119,64.408,52.127,65.42,54.083c2.82,5.449,1.807,12.093-2.507,16.455 C212.628,242.616,181.046,274.119,144.681,274.119z M100.91,215.675c8.169,11.653,22.457,27.289,38.751,29.772 c1.62,0.246,3.31,0.372,5.021,0.372c15.704,0,31.545-10.116,40.849-17.334c-8.169-11.654-22.457-27.289-38.751-29.772 c-1.62-0.246-3.308-0.372-5.019-0.372C126.055,198.342,110.212,208.457,100.91,215.675z"/> </g>
</svg>