<!DOCTYPE svg PUBLIC "-//W3C//DTD SVG 1.1//EN" "http://www.w3.org/Graphics/SVG/1.1/DTD/svg11.dtd">
<!-- Uploaded to: SVG Repo, www.svgrepo.com, Transformed by: SVG Repo Mixer Tools -->
<svg height="800px" width="800px" version="1.1" id="_x32_" xmlns="http://www.w3.org/2000/svg" xmlns:xlink="http://www.w3.org/1999/xlink" viewBox="0 0 512 512" xml:space="preserve" fill="#000000">
<g id="SVGRepo_bgCarrier" stroke-width="0"/>
<g id="SVGRepo_tracerCarrier" stroke-linecap="round" stroke-linejoin="round"/>
<g id="SVGRepo_iconCarrier"> <style type="text/css"> .st0{fill:#008080;} </style> <g> <path class="st0" d="M258.126,261.272c-5.902-5.902-5.902-15.536,0-21.438l89.051-89.059c-14.38-7.772-30.719-11.549-47.975-11.249 c-61.304,1.209-91.282,44.605-97.934,84.057c-6.661-39.452-36.683-82.848-97.987-84.057C46.722,138.477,0,181.961,0,261.272 c0,61.754,42.328,103.386,93.188,143.5c0,0,0,0,0.009,0.009l-43.74,43.731l-6.087-14.919c-0.714-1.755-2.453-2.858-4.341-2.779 c-1.897,0.08-3.528,1.341-4.076,3.149l-20.017,64.87c-0.485,1.579-0.061,3.317,1.12,4.482c1.164,1.173,2.893,1.614,4.49,1.102 l64.851-19.99c1.8-0.556,3.071-2.18,3.158-4.076c0.08-1.897-1.032-3.635-2.788-4.358l-14.918-6.07l46.519-46.528 c26.078,19.867,53.011,40.061,76.682,62.902c2.725,2.682,2.064,2.638,2.064,2.638c1.314,1.553,3.176,2.514,5.099,2.514 c0,0,0,0,0.053,0c1.968,0,3.776-0.961,5.09-2.514c0,0-0.653,0.044,2.126-2.638c78.746-76.073,193.998-123.095,193.998-225.026 c0-40.158-11.954-71.142-31.186-91.777l-91.776,91.777C273.618,267.174,264.028,267.174,258.126,261.272z"/> <path class="st0" d="M456.694,62.668L444.211,7.371L387.132,64.46l8.549,37.829l-48.504,48.486c8.884,4.79,17,11.054,24.119,18.72 l45.778-45.804l37.837,8.548L512,75.16L456.694,62.668z"/> </g> </g>
</svg>