<!DOCTYPE svg PUBLIC "-//W3C//DTD SVG 1.1//EN" "http://www.w3.org/Graphics/SVG/1.1/DTD/svg11.dtd">
<!-- Uploaded to: SVG Repo, www.svgrepo.com, Transformed by: SVG Repo Mixer Tools -->
<svg fill="#008080" height="800px" width="800px" version="1.1" id="Capa_1" xmlns="http://www.w3.org/2000/svg" xmlns:xlink="http://www.w3.org/1999/xlink" viewBox="0 0 297 297" xml:space="preserve" stroke="#008080">
<g id="SVGRepo_bgCarrier" stroke-width="0"/>
<g id="SVGRepo_tracerCarrier" stroke-linecap="round" stroke-linejoin="round"/>
<g id="SVGRepo_iconCarrier"> <g> <path d="M9.884,8.154C4.425,8.154,0,12.579,0,18.037v195.694c0,5.458,4.425,9.884,9.884,9.884h277.233 c5.458,0,9.884-4.425,9.884-9.884V18.037c0-5.458-4.425-9.884-9.884-9.884H9.884z M59.297,137.118 c16.663-5.687,26.479-15.331,32.195-23.905c9.539-14.308,9.814-28.386,9.814-29.944V27.921h94.388v55.348 c0,1.558,0.275,15.636,9.814,29.944c5.716,8.574,15.532,18.218,32.195,23.905c-5.618,6.606-9.393,15.672-9.393,27.69v39.04H68.691 v-39.04C68.691,152.789,64.916,143.723,59.297,137.118z"/> <path d="M278.963,236.463h-65.231c-5.458,0-9.884,4.425-9.884,9.884c0,5.458,4.425,9.884,9.884,9.884h65.231 c5.458,0,9.884-4.425,9.884-9.884C288.846,240.889,284.421,236.463,278.963,236.463z"/> <path d="M181.116,256.23c5.458,0,9.884-4.425,9.884-9.884c0-5.458-4.425-9.884-9.884-9.884h-65.231 c-5.458,0-9.884,4.425-9.884,9.884c0,5.458,4.425,9.884,9.884,9.884H181.116z"/> <path d="M93.152,246.347c0-5.458-4.425-9.884-9.884-9.884H18.037c-5.458,0-9.884,4.425-9.884,9.884 c0,5.458,4.425,9.884,9.884,9.884h65.231C88.727,256.23,93.152,251.805,93.152,246.347z"/> <path d="M132.192,269.079H66.961c-5.458,0-9.884,4.425-9.884,9.884c0,5.458,4.425,9.884,9.884,9.884h65.231 c5.458,0,9.884-4.425,9.884-9.884C142.076,273.504,137.65,269.079,132.192,269.079z"/> <path d="M230.039,269.079h-65.231c-5.458,0-9.884,4.425-9.884,9.884c0,5.458,4.425,9.884,9.884,9.884h65.231 c5.458,0,9.884-4.425,9.884-9.884C239.923,273.504,235.497,269.079,230.039,269.079z"/> </g> </g>
</svg>