<!DOCTYPE svg PUBLIC "-//W3C//DTD SVG 1.1//EN" "http://www.w3.org/Graphics/SVG/1.1/DTD/svg11.dtd">
<!-- Uploaded to: SVG Repo, www.svgrepo.com, Transformed by: SVG Repo Mixer Tools -->
<svg fill="#008080" height="800px" width="800px" version="1.1" id="Layer_1" xmlns="http://www.w3.org/2000/svg" xmlns:xlink="http://www.w3.org/1999/xlink" viewBox="0 0 512.001 512.001" xml:space="preserve">
<g id="SVGRepo_bgCarrier" stroke-width="0"/>
<g id="SVGRepo_tracerCarrier" stroke-linecap="round" stroke-linejoin="round"/>
<g id="SVGRepo_iconCarrier"> <g> <g> <path d="M335.542,33.735c-2.561-5.355-8.98-7.617-14.332-5.056c-2.236,1.07-4.503,2.05-6.784,2.982L304.048,7.757 c-0.865-1.991-3.151-2.94-5.171-2.144l-11.96,4.711c-3.339,1.316-6.936,1.851-10.513,1.566l-12.814-1.021 c-2.164-0.173-4.075,1.401-4.321,3.557l-2.957,25.891c-2.453-0.226-4.908-0.503-7.359-0.875 c-5.864-0.874-11.347,3.144-12.236,9.014c-0.891,5.868,3.144,11.347,9.013,12.237c3.94,0.598,7.885,1.02,11.829,1.294 c1.292,11.011,8.394,20.995,19.398,25.442c16.054,6.489,34.327-1.266,40.817-17.319c2.309-5.712,2.806-11.703,1.775-17.346 c3.693-1.414,7.343-2.976,10.938-4.697C335.84,45.506,338.103,39.089,335.542,33.735z"/> </g> </g> <g> <g> <path d="M437.564,502.184L378.87,365.066c-1.299,3.188,0.44-4.687-13.049,64.494l47.747,75.609c0.59,0.934,1.617,1.5,2.721,1.5 h18.315c1.082,0,2.091-0.543,2.687-1.446S437.989,503.179,437.564,502.184z"/> </g> </g> <g> <g> <path d="M106.646,392.709c-0.07-3.403-0.682-33.274-0.767-37.382c-2.343-2.056-4.571-4.256-6.693-6.576l-19.768,40.296 L64.543,502.221c-0.121,0.919,0.16,1.845,0.771,2.542c0.611,0.697,1.493,1.096,2.42,1.096h14.789c1.395,0,2.631-0.898,3.062-2.225 l27.785-85.569C112.317,414.097,107.5,395.929,106.646,392.709z"/> </g> </g> <g> <g> <path d="M506.57,168.039c-9.673-5.068-67.589-35.414-76.314-39.984c0.433-16.147-5.814-39.53-9.324-51.291 c-0.814-2.726-4.536-3.082-5.858-0.571c0,0-44.134,89.051-44.141,89.067l-10.773-10.713c-0.984-9.391-9.705-15.634-18.664-14.076 l-46.059,7.979l-5.237-6.013l4.8-11.877c4.331-10.714-0.845-22.912-11.559-27.241L247.993,88.99 c-5.073-2.05-10.968-2.136-16.507,0.375l21.994,9.493l-44.308-5.942l-32.158-50.008c-3.286-5.11-8.983-7.729-14.641-7.335 l-1.247-0.835l0.504-0.779c1.968-3.035,1.102-7.091-1.933-9.059c-3.036-1.967-7.09-1.101-9.058,1.933l-3.124,4.821 c-0.409-0.672-10.062-16.579-14.459-23.823c-1.029-1.694-3.201-2.283-4.943-1.336l-6.175,3.358 c-1.74,0.946-2.428,3.093-1.565,4.875c2.546,5.26,7.921,16.366,13.66,28.225c-0.445,1.52-0.775,3.072-0.982,4.643l-4.007,2.179 c-1.801,0.98-2.467,3.232-1.487,5.033l3.756,6.906c1.016,1.868,3.34,2.406,5.033,1.487l5.926-3.223 c0.023,0.049,0.048,0.1,0.072,0.149c-0.048-0.043,0.673,1.332,1.339,2.154c2.701,3.518,6.799,5.259,10.9,5.135l31.586,49.119 c2.548,3.961,6.706,6.605,11.375,7.232l51.666,6.929l-42.931,6.086c-0.165,0.413-24.738,63.765-30.827,79.464 c-2.56,6.599-1.066,14.102,3.829,19.214c0.051,0.053,0.102,0.106,0.154,0.159c-4.921,0-26.909,0-42.407,0 c-13.998,0-26.632,6.754-33.406,14.754c-9.605-16.419-29.593-14.792-44.794,0.872c-30.327,30.315-37.867,92.326-40.867,98.51 c-3.861,6.737-8.637,5.195-13.443,3.075c-1.148-0.506-2.484-0.299-3.426,0.529c-0.942,0.828-1.315,2.128-0.957,3.331 c4.54,15.32,17.766,22.879,34.404,15.53c32.953-15.864,46.04-74.879,53.597-104.451c0.589-1.826,2.512-5.788,7.835-4.813 c-6.44,15.284-6.37,34.924,1.694,53.576c5.658,13.085,14.368,23.636,24.43,30.767l0.885,43.113l29.98,113.056 c0.374,1.411,1.652,2.394,3.111,2.394h16.012c0.911,0,1.779-0.386,2.39-1.062c0.61-0.676,0.906-1.579,0.813-2.485l-10.752-104.896 l13.507-27.535h37.796c33.098,0,38.061,0,72.818,0l22.427,43.836l-0.998,88.889c-0.01,0.86,0.325,1.689,0.929,2.3 c0.604,0.611,1.429,0.956,2.289,0.956h18.313c1.541,0,2.865-1.091,3.159-2.603l27.424-140.66l61.199-150.269 c5.52,0.955,11.721,1.325,17.414,0.654c10.238-1.205,18.701-5.486,25.369-10.235c7.058-5.027,16.487-5.213,23.734-0.463 c5.366,3.517,12.612,1.215,14.972-4.743l4.276-10.801l2.254-6.338C513.104,175.653,511.039,170.381,506.57,168.039z M341.497,226.166c-2.496,6.874,3.135-8.675-36.181,99.947c-6.566,18.141-26.595,27.524-44.735,20.958 s-27.524-26.595-20.958-44.735l19.774-54.632l-48.668-6.7l68.35-1.646l-24.725,68.31c-3.621,10.004,1.554,21.051,11.558,24.672 c10.017,3.624,21.054-1.564,24.672-11.558l34.314-94.804c2.165-5.983,1.238-12.647-2.479-17.809 c-3.715-5.164-9.755-8.192-16.101-8.006l-96.517,2.325l60.717-11.36l6.178-15.284c4.387,5.038,9.863,6.746,15.31,5.8l57.651-9.83 l7.944,7.901l-18.762,19.581C343.608,207.246,344.735,217.13,341.497,226.166z"/> </g> </g> </g>
</svg>